<?xml version="1.0"?><svg width="640" height="480" xmlns="http://www.w3.org/2000/svg">
 <metadata id="metadata2290">image/svg+xml</metadata>
 <g>
  <title>Layer 1</title>
  <g id="g2292">
   <polygon fill="#000000" points="207.2949981689453,595.4390258789062 60.80699920654297,596.5440063476562 61.91200065612793,581.6190185546875 198.44900512695312,580.5130004882812 205.08299255371094,581.6190185546875 " id="polygon2245"/>
   <path fill="#000000" d="m72.415001,577.197021l124.93,-1.65802l-4.238998,-60.437988c0,0 -1.841995,-1.612 -9.028,4.468018c-7.186005,6.080994 -0.82901,-4.421997 -0.82901,-4.421997s-2.855988,-12.76001 -3.224991,-13.682007c-0.369003,-0.921021 -2.578995,0.735992 -2.578995,1.658997c0,0.92099 0.18399,-4.791016 -0.369003,-5.343994s-2.396011,-4.606018 -4.790009,1.473999c-2.395996,6.079987 -7.003006,60.253967 -7.003006,60.253967s0.186005,11.239014 -0.735992,11.977051c-0.921997,0.735962 -11.056,-8.661011 -11.056,-10.319031c0,-1.656982 12.161011,-57.119995 11.423004,-59.147003c-0.735992,-2.026001 -14.554993,11.240997 -18.425003,10.688019c-3.869995,-0.554016 0.921005,43.115967 0.18399,43.484009c-0.736984,0.367981 -7.738983,6.816956 -9.580994,7.738953c-1.841995,0.921997 3.685013,-40.537964 3.685013,-43.669983c0,-3.132996 -11.978012,15.29303 -12.89901,21.006042c-0.920998,5.711975 -2.394997,1.519958 -4.054001,-0.737c-0.851997,-1.160034 3.133003,-16.215027 2.764999,-16.768005c-0.367996,-0.552002 -6.633995,2.210999 -7.370995,3.315979c-0.737999,1.106018 -6.634003,31.692993 -11.241005,35.192993c-4.605995,3.502014 -0.736,-19.161987 -2.209999,-19.899963c-1.474998,-0.736023 -8.292,5.896973 -8.292,5.896973s1.290001,22.663025 -0.184998,24.320984c-1.473999,1.658997 -3.868996,1.106995 -4.791,0.369019c-0.920998,-0.737 4.791,-12.896973 4.422997,-14.370972c-0.368996,-1.476013 -0.554001,-3.317017 -1.474998,-2.212036c-0.920998,1.10498 0.737999,-4.422974 -0.183998,-4.974976c-0.921997,-0.55304 -2.947998,0.552002 -2.947998,0.552002s-6.818001,16.953003 -8.292007,18.425964c-1.473999,1.476013 -10.501999,2.580994 -11.607994,6.820007z" id="path2247"/>
   <path fill="#000000" d="m60.254997,108.251999c0.368004,-1.474998 1.473003,-3.869995 2.395004,-4.054001c0.920998,-0.184998 -0.737,-6.081001 -0.737,-6.081001s15.293999,-2.209999 16.584,2.211006c1.288994,4.422997 -0.185005,4.421997 -0.185005,4.791c0,0.367996 7.555008,9.028999 4.975998,29.481995c-2.580994,20.451996 7.554001,53.067001 5.711006,65.597c-1.842003,12.529007 -2.948006,14.372009 -4.790001,21.373001c-1.842995,7.003006 -4.975998,-28.007004 -7.186996,-30.218002c-2.211006,-2.210999 -3.316002,-10.317993 -1.105003,-10.871002c2.210999,-0.552994 4.054001,-5.528 5.160004,-6.450989c1.104996,-0.920013 -4.054008,-26.164001 -4.423004,-27.270004c0,0 -2.763,6.817993 -5.527,2.763992c-2.764,-4.054993 1.474007,-10.687988 1.105003,-12.161987c-0.369003,-1.475006 -0.553001,-10.872009 0.183998,-11.793007c0.737999,-0.919998 0.922005,-5.895996 0.368996,-6.080002c-0.552994,-0.184998 -4.053993,0.921005 -5.895996,1.105003s-3.868999,-4.974998 -2.394997,-4.974998c1.473,0 -1.660004,-4.422005 -1.843002,-5.528c-0.186001,-1.103004 -2.396004,-1.840004 -2.396004,-1.840004z" id="path2249"/>
   <path fill="#000000" d="m69.282997,207.938004c1.116005,0.106995 1.659004,20.268997 1.659004,20.268997s1.841995,8.843994 2.947998,10.503006c1.104996,1.65799 -1.473999,5.158997 -4.974998,5.526993c-3.5,0.369003 -5.159,-0.184006 -5.159,-0.184006c-0.368999,-0.184998 -1.105999,9.766006 -1.291,10.318008c-0.185001,0.552994 -7.186001,-4.791 -7.000999,-11.792999c0.182999,-7.001007 8.106998,-35.193008 13.818996,-34.639999z" id="path2251"/>
   <path fill="#000000" d="m180.483002,329.963989c-0.569,-0.570007 16.031998,-23.90799 16.031998,-23.90799l3.315002,0.828979l0.552994,-5.250977l32.339005,13.541992l-3.593994,2.902008l2.210999,2.625977l-4.975998,6.632996c0,0 7.187988,7.048004 6.495987,11.056c-0.689987,4.008026 -21.143997,25.013 -23.078995,25.428009c-1.934998,0.415009 -12.436996,20.039001 -12.436996,20.039001l-7.878006,-1.10498c0,0 -4.145996,-25.151001 -7.462997,-28.054016c-3.315994,-2.901001 -2.763992,-5.251007 -2.072998,-8.152985c0.692993,-2.903015 0.968994,-16.169006 0.554001,-16.584015z" id="path2253"/>
   <path fill="#000000" d="m150.173004,273.351013c-0.736008,0.735992 -31.693001,73.334991 -32.798004,76.652008c-1.105003,3.315979 -7.738998,31.691986 -18.425995,49.013c-10.687004,17.320984 -12.530006,26.53299 -12.89801,32.798981s2.211006,15.109009 1.843002,18.794006c-0.368996,3.686005 -10.687996,16.216003 -11.055992,23.217987c-0.369003,7.001007 1.104996,7.370026 1.104996,7.370026s13.266998,-7.738007 18.426003,-11.424011s28.375999,-41.643005 30.219994,-58.595001c1.842003,-16.953003 9.950005,-40.536987 11.055,-43.118011c1.104996,-2.579987 12.162003,-46.801971 11.792999,-51.224976c-0.369995,-4.421997 1.474014,-39.062988 1.474014,-39.062988l-0.738007,-4.421021z" id="path2255"/>
   <path fill="#000000" d="m77.556999,486.074005c0,0 51.849007,-34.812012 58.780998,-56.208984l4.035004,-5.540009c0.73201,-1.47699 -12.014999,44.631012 -18.257004,51.652008c-6.241997,7.02298 -9.171997,12.190979 -10.264999,16.617981c-1.090996,4.425018 -8.763,24.720001 -11.686996,32.100006c-2.925003,7.380981 -5.478004,15.495972 -6.199997,19.921021c-0.723,4.424988 -20.217003,15.911987 -22.808006,12.603943c-2.589996,-3.30896 -1.497993,-7.36499 -1.497993,-7.36499s-5.535004,-2.191956 -0.396004,-8.475952c5.139,-6.281006 -0.223,-6.980042 -0.164001,-8.54303c0.090004,-2.369019 -0.345001,-34.20401 8.459,-46.761993z" id="path2257"/>
   <path fill="#000000" d="m154.502991,409.151001c0,0 -1.105988,89.273987 -3.316986,94.526001c-2.210007,5.251007 -23.493004,8.014984 -32.337006,17.135986c-8.845001,9.121033 -11.885002,14.924988 -16.860001,18.794983c-4.975998,3.869019 -7.186996,8.845032 -6.633995,7.462036c0.553001,-1.382019 19.070999,-49.197021 32.061996,-66.058014c12.99099,-16.858978 9.950005,-33.166992 12.713997,-39.246979c2.763992,-6.081024 10.501999,-29.574005 14.371994,-32.614014z" id="path2259"/>
   <path fill="#000000" d="m160.583008,359.123993c0,0.82901 -1.380997,121.612 -1.380997,123.824005c0,2.210999 34.271988,-18.242004 37.036987,-22.112c2.763,-3.869019 -14.097,-79.325012 -15.755997,-90.656006c-1.658005,-11.333008 -5.804001,-33.444 -7.462006,-35.378998c-1.65799,-1.93399 -2.487991,15.755005 -5.526993,16.583984c-3.041,0.82901 -6.910995,7.739014 -6.910995,7.739014z" id="path2261"/>
   <path fill="#000000" d="m153.674011,272.613007c0,0 20.176987,19.347992 24.046982,43.117004c3.869003,23.770996 0.229004,8.247009 -0.275986,9.121002c-0.879013,1.516998 -3.87001,-9.121002 -8.292007,-5.527008c-4.422989,3.593018 -6.35701,4.145996 -6.35701,5.251007c0,1.105011 -0.552994,-24.04599 -0.552994,-24.04599l-8.568985,-27.916016z" id="path2263"/>
   <path fill="#000000" d="m64.953003,258.516998c0,0 20.175995,-9.121002 22.386993,-11.608002c2.210999,-2.487991 -18.793999,24.598999 -21.834999,24.321991c-3.039997,-0.276001 -5.803997,-1.105988 -4.973999,-2.210999c0.829002,-1.105988 1.105,-6.079987 1.935001,-6.356995c0.828003,-0.277008 2.487003,-4.145996 2.487003,-4.145996z" id="path2265"/>
   <path fill="#000000" d="m139.302002,267.084991c-0.276001,0.828003 -23.494003,25.980011 -32.890999,32.061005c-9.397003,6.080994 -21.006004,21.834991 -24.045998,27.915985c-3.041,6.080994 -12.162003,20.453003 -13.543007,24.600006c-1.381996,4.144989 -2.210999,8.843994 -1.658997,12.437012c0.552994,3.593994 2.004997,6.230988 3.041,7.186981c1.198997,1.105011 5.711998,1.84201 7.094002,1.290009c1.381996,-0.553009 3.685997,-1.84201 3.685997,-1.84201s9.120995,-48.09198 11.607994,-48.644989c2.487007,-0.553009 2.210007,8.015015 -0.828995,14.372009c-3.041,6.356995 -2.487999,7.462006 -2.764,8.567993c-0.276001,1.105011 0.553001,2.210999 0.553001,2.210999s36.207001,-55.002014 38.141998,-59.700989c1.93399,-4.700012 11.608002,-20.45401 11.608002,-20.45401z" id="path2267"/>
   <path fill="#000000" d="m122.718002,319.322998c-0.829002,0.82901 -49.197006,74.625 -49.75,82.640991c-0.553001,8.016022 1.658997,8.568024 3.039993,9.674011c1.382004,1.105988 6.081009,0 6.910004,-0.553009c0.830002,-0.552979 4.145996,-9.949982 4.145996,-9.949982l35.654007,-81.812012z" id="path2269"/>
   <path fill="#000000" d="m86.511002,293.06601c-1.106003,2.488007 -16.306999,12.713989 -15.477997,14.924988c0.828995,2.210999 1.381996,4.423004 2.487991,4.423004c1.105003,0 1.657005,0.276001 1.934006,1.382019c0.276993,1.10498 0,1.380981 0.552994,3.039978c0.553001,1.65802 2.211006,5.528015 2.211006,5.528015l8.292,-29.298004z" id="path2271"/>
   <path fill="#000000" d="m146.672989,224.059998c0.645004,-0.091995 4.791,0.093002 3.869003,-1.841995c-0.796982,-1.675003 -2.281998,-7.348999 -1.889984,-10.279007l28.422989,-1.052002c0,0 -20.292999,-4.007996 -27.210007,-5.30899c-0.006989,-1.179001 -0.099991,-2.378006 -0.243988,-3.464996l25.427002,-10.206009c0,0 -21.837006,3.591003 -27.451996,4.431c-1.042007,-1.968994 -2.121002,-3.602997 -2.121002,-3.602997c-0.268005,-0.244003 -0.535004,-0.479004 -0.803009,-0.707001l18.584,-19.468994c0,0 -18.996994,13.207993 -23.422989,16.181c-2.447998,-1.279999 -4.895004,-2.02301 -7.268997,-2.369003l0.656998,-25.789001c0,0.466995 -5.405006,19.785004 -7.070007,25.729996c-3.370003,0.404999 -6.410004,1.423004 -8.861,2.513l-17.973,-18.47699l12.543999,21.480988c-0.487,0.333008 -0.75,0.53801 -0.75,0.53801c-1.551003,1.104996 -2.883003,2.238998 -4.028999,3.386002l-21.584,-0.346008l0.369003,2.947998l16.72599,3.615997c-0.616989,1.291 -1.051994,2.56601 -1.348,3.808014l-7.085999,0.866989l0.060005,0.199005c-1.697006,-2.762009 -3.191002,-4.436996 -3.191002,-4.436996s1.289001,7.186996 0.184006,14.556992c-1.106003,7.371002 -20.084007,29.850998 -20.084007,29.850998s-0.921997,2.026001 5.712006,1.290009c6.632996,-0.737 18.241997,-8.292007 21.558998,-21.005997c1.599998,-6.134003 -0.061996,-12.091003 -2.208,-16.62001l4.564995,0.725998c0.270004,5.39801 2.617004,9.261002 2.617004,9.261002c0,-0.367996 6.081001,-7.186996 7.831001,-6.725998c1.75,0.460999 10.687996,-4.052994 11.146996,-3.591995c0.460999,0.460999 4.238998,3.5 4.238998,3.5s3.684006,1.75 3.684006,2.119003s0.184998,9.213989 -0.276001,9.306s-1.841995,0.460999 -1.841995,0.460999s-0.646004,4.604996 -1.290009,4.421997c-0.643997,-0.184006 -0.827995,1.104996 -1.197998,1.473999c-0.367996,0.367996 3.223999,3.041 3.223999,3.041s1.199005,3.686005 0,3.778c-1.196999,0.091995 -1.934998,4.975006 -1.104996,5.895996c0.828995,0.921005 2.395996,0.921005 2.856995,0.830002c0.460007,-0.091995 1.75,1.014008 5.527008,-0.645004c3.776993,-1.65799 9.581985,-18.425995 9.581985,-18.425995s0.274017,-1.753006 0.919998,-1.845001zm4.238022,33.166992c0.091995,-0.276001 -3.225021,-12.714005 -2.764008,-12.990997c0.460999,-0.275009 1.658997,-1.104004 2.488007,-3.040009c0.829987,-1.934998 -1.75,-6.172989 -1.75,-6.356995c0,-0.184006 -2.027008,-7.645996 -2.027008,-7.645996c0,0.459991 -7.921997,17.873001 -7.921997,17.873001s0.367996,8.475998 0.552994,9.304993c0.18399,0.830002 3.315994,0.276001 3.315994,0.645004c0,0.369003 0.369019,6.634003 0.553009,6.634003c0.184998,0 1.014008,1.013 2.119995,0.09201c1.105011,-0.921021 6.264999,-0.553009 6.264999,-0.553009s-0.924988,-3.686005 -0.831985,-3.962006zm-79.878006,31.693024c-3.594009,1.934998 -3.041008,2.210999 -2.488007,3.040985c0.553001,0.82901 1.105003,2.488007 1.105003,2.488007s-1.382004,-1.381989 -2.211006,2.763c-0.828995,4.145996 -1.104996,5.252014 -0.275993,5.528015s17.964996,-9.950012 20.728996,-16.859009c2.764,-6.911011 12.714005,-34.272995 12.714005,-34.272995c-0.275002,1.103989 -25.980003,35.376968 -29.572998,37.311996zm19.624001,-32.890015l9.396996,-22.940994c-0.276001,1.104996 -14.373001,17.688995 -16.031006,25.979996c-1.65799,8.291992 -3.315994,9.950012 -4.421989,11.88501c-1.105003,1.934998 11.056,-14.924011 11.056,-14.924011zm35.930992,3.31601c-1.105995,-0.276001 -3.316994,-2.209991 -5.804001,-4.421005c-2.487999,-2.21199 -9.396996,-11.884995 -9.396996,-11.884995c-1.934998,-4.975006 -8.845001,-9.673996 -7.187004,-7.462006c1.658005,2.211014 -1.380997,29.296997 -1.933998,30.955994c-0.553001,1.65802 -11.885002,34.272003 -11.056,33.167023c0.829002,-1.105011 3.316002,-3.317017 6.909004,-5.527008c3.593994,-2.210999 1.934998,-5.804993 2.487991,-11.056c0.553009,-5.252014 1.659004,-4.423004 3.593002,-8.845001c1.935005,-4.423004 6.357002,-4.699005 9.674004,-5.804993c3.317001,-1.105011 10.502998,-2.763 11.608002,-3.040009c1.105995,-0.277008 2.210999,-5.806 1.105995,-6.082001z" id="path2273"/>
   <path fill="#000000" d="m58.042,95.445999c0,0 13.129005,-6.219002 22.872002,-0.207001c0,0 6.218994,1.451004 10.709999,-5.528c0,0 -0.691002,-3.799995 -10.917,-5.527c-10.226997,-1.727997 -18.380001,-0.069 -18.380001,-0.069s-8.843998,1.728004 -11.677998,5.043999c-2.833004,3.316002 7.392998,6.287003 7.392998,6.287003z" id="path2275"/>
   <path fill="#000000" d="m53.206001,85.012001c0,0 14.925003,-9.674004 35.515999,-0.691002c0,0 0.276001,-5.736 1.589005,-6.219002c1.312996,-0.484001 -18.726006,-8.223999 -37.659004,-0.552994c0.000999,0.000999 2.695999,3.385994 0.554001,7.462997z" id="path2277"/>
   <path fill="#000000" d="m64.653999,67.208c0.004005,0.012001 1.478996,0.765999 1.858002,0.996002c3.112999,2.300995 12.499001,-0.969002 12.499001,-0.969002s12.768997,-7.053001 10.863998,-23.635002c0,0 0.147995,5.036003 -5.416,9.644001c-0.521996,-2.381001 -1.226997,-4.352001 -2.612,-7.121998c-0.660004,-1.321003 -1.236,-2.409 -1.730003,-3.405003c0.140999,-0.158001 0.280998,-0.312 0.418999,-0.451c2.478004,-2.478001 14.671005,-12.961998 2.762009,-41.265999c0,0 1.714996,20.014 -2.574005,23.444c-4.289001,3.431 -23.156998,11.437 -22.585999,27.446999c0.571999,16.010002 3.056999,13.021004 6.538002,15.339005" id="path2279"/>
   <rect x="47.291" y="606.822" fill="#000000" width="168.314" height="28.19" id="rect2281"/>
   <rect x="39" y="642.475" fill="#000000" width="194.847" height="29.849" id="rect2283"/>
   <path fill="#000000" d="m51.438,683.932007v144.268982h165.827v-144.268982h-165.827l0,0zm64.444004,51.406006h-22.005005v-40.627991h22.005005v40.627991l0,0zm31.962997,0h-22.005005v-40.627991h22.005005v40.627991l0,0zm34.580994,0h-22.005997v-40.627991h22.005005v40.627991l0.000992,0z" id="path2285"/>
  </g>
 </g>
</svg>